# Blender 4.4.0
# www.blender.org
mtllib branch_l.mtl
o Cylinder
v 0.000000 0.500000 0.000000
v 0.097545 0.490393 0.097545
v 0.191342 0.461940 0.191342
v 0.277785 0.415735 0.277785
v 0.353553 0.353553 0.353553
v 0.415735 0.277785 0.415735
v 0.461940 0.191342 0.461940
v 0.490393 0.097545 0.490393
v 0.500000 -0.000000 0.500000
v 0.490393 -0.097545 0.490393
v 0.461940 -0.191342 0.461940
v 0.415735 -0.277785 0.415735
v 0.353553 -0.353553 0.353553
v 0.277785 -0.415735 0.277785
v 0.191342 -0.461940 0.191342
v 0.097545 -0.490393 0.097545
v 0.000000 -0.500000 -0.000000
v -0.097545 -0.490393 -0.097545
v -0.097545 -0.490393 0.097545
v -0.191342 -0.461940 -0.191342
v -0.191342 -0.461940 0.191342
v -0.277785 -0.415735 -0.277785
v -0.277785 -0.415735 0.277785
v -0.353553 -0.353553 -0.353553
v -0.353553 -0.353553 0.353553
v -0.415735 -0.277785 -0.415735
v -0.415735 -0.277785 0.415735
v -0.461940 -0.191342 -0.461940
v -0.461940 -0.191342 0.461940
v -0.490393 -0.097545 -0.490393
v -0.490393 -0.097545 0.490393
v -0.500000 0.000000 -0.500000
v -0.500000 -0.000000 0.500000
v -0.490393 0.097545 -0.490393
v -0.490393 0.097545 0.490393
v -0.461940 0.191342 -0.461940
v -0.461940 0.191342 0.461940
v -0.415735 0.277785 -0.415735
v -0.415735 0.277785 0.415735
v -0.353553 0.353553 -0.353553
v -0.353553 0.353553 0.353553
v -0.277785 0.415735 -0.277785
v -0.277785 0.415735 0.277785
v -0.191342 0.461940 -0.191342
v -0.191342 0.461940 0.191342
v -0.097545 0.490393 -0.097545
v -0.097545 0.490393 0.097545
v 2.000000 0.500000 -0.000000
v 2.000000 0.490393 -0.097545
v 2.000000 0.461940 -0.191342
v 2.000000 0.415735 -0.277785
v 2.000000 0.353553 -0.353553
v 2.000000 0.277785 -0.415735
v 2.000000 0.191342 -0.461940
v 2.000000 0.097545 -0.490393
v 2.000000 -0.000000 -0.500000
v 2.000000 -0.097545 -0.490393
v 2.000000 -0.191342 -0.461940
v 2.000000 -0.277785 -0.415735
v 2.000000 -0.353553 -0.353553
v 2.000000 -0.415735 -0.277785
v 2.000000 -0.461940 -0.191342
v 2.000000 -0.490393 -0.097545
v 2.000000 -0.500000 -0.000000
v 2.000000 -0.490393 0.097545
v 2.000000 -0.461940 0.191342
v 2.000000 -0.415735 0.277785
v 2.000000 -0.353553 0.353553
v 2.000000 -0.277785 0.415735
v 2.000000 -0.191342 0.461940
v 2.000000 -0.097545 0.490393
v 2.000000 -0.000000 0.500000
v 2.000000 0.097545 0.490393
v 2.000000 0.191342 0.461940
v 2.000000 0.277785 0.415735
v 2.000000 0.353553 0.353553
v 2.000000 0.415735 0.277785
v 2.000000 0.461940 0.191342
v 2.000000 0.490393 0.097545
v 0.000000 0.500000 -0.000000
v 0.097545 0.490393 -0.097545
v 0.191342 0.461940 -0.191342
v 0.277785 0.415735 -0.277785
v 0.353553 0.353553 -0.353553
v 0.415735 0.277785 -0.415735
v 0.461940 0.191342 -0.461940
v 0.490393 0.097545 -0.490393
v 0.500000 -0.000000 -0.500000
v 0.490393 -0.097545 -0.490393
v 0.461940 -0.191342 -0.461940
v 0.415735 -0.277785 -0.415735
v 0.353553 -0.353553 -0.353553
v 0.277785 -0.415735 -0.277785
v 0.191342 -0.461940 -0.191342
v 0.097545 -0.490393 -0.097545
v -0.000000 -0.500000 0.000000
v 0.097545 -0.490393 0.097545
v 0.191342 -0.461940 0.191342
v 0.277785 -0.415735 0.277785
v 0.353553 -0.353553 0.353553
v 0.415735 -0.277785 0.415735
v 0.461940 -0.191342 0.461940
v 0.490393 -0.097545 0.490393
v 0.500000 -0.000000 0.500000
v 0.490393 0.097545 0.490393
v 0.461940 0.191342 0.461940
v 0.415735 0.277785 0.415735
v 0.353553 0.353553 0.353553
v 0.277785 0.415735 0.277785
v 0.191342 0.461940 0.191342
v 0.097545 0.490393 0.097545
v 0.000000 0.500000 -2.000000
v 0.097545 0.490393 -2.000000
v 0.191342 0.461940 -2.000000
v 0.277785 0.415735 -2.000000
v 0.353553 0.353553 -2.000000
v 0.415735 0.277785 -2.000000
v 0.461940 0.191342 -2.000000
v 0.490393 0.097545 -2.000000
v 0.500000 0.000000 -2.000000
v 0.490393 -0.097545 -2.000000
v 0.461940 -0.191342 -2.000000
v 0.415735 -0.277785 -2.000000
v 0.353553 -0.353553 -2.000000
v 0.277785 -0.415735 -2.000000
v 0.191342 -0.461940 -2.000000
v 0.097545 -0.490393 -2.000000
v 0.000000 -0.500000 -2.000000
v -0.097545 -0.490393 -2.000000
v -0.191342 -0.461940 -2.000000
v -0.277785 -0.415735 -2.000000
v -0.353553 -0.353553 -2.000000
v -0.415735 -0.277785 -2.000000
v -0.461940 -0.191342 -2.000000
v -0.490393 -0.097545 -2.000000
v -0.500000 0.000000 -2.000000
v -0.490393 0.097545 -2.000000
v -0.461940 0.191342 -2.000000
v -0.415735 0.277785 -2.000000
v -0.353553 0.353553 -2.000000
v -0.277785 0.415735 -2.000000
v -0.191342 0.461940 -2.000000
v -0.097545 0.490393 -2.000000
v 0.000000 0.500000 0.000000
v 0.097545 0.490393 -0.097545
v 0.191342 0.461940 -0.191342
v 0.277785 0.415735 -0.277785
v 0.353553 0.353553 -0.353553
v 0.415735 0.277785 -0.415735
v 0.461940 0.191342 -0.461940
v 0.490393 0.097545 -0.490393
v 0.500000 0.000000 -0.500000
v 0.490393 -0.097545 -0.490393
v 0.461940 -0.191342 -0.461940
v 0.415735 -0.277785 -0.415735
v 0.353553 -0.353553 -0.353553
v 0.277785 -0.415735 -0.277785
v 0.191342 -0.461940 -0.191342
v 0.097545 -0.490393 -0.097545
v 0.000000 -0.500000 -0.000000
v -0.097545 -0.490393 -0.097545
v -0.191342 -0.461940 -0.191342
v -0.277785 -0.415735 -0.277785
v -0.353553 -0.353553 -0.353553
v -0.415735 -0.277785 -0.415735
v -0.461940 -0.191342 -0.461940
v -0.490393 -0.097545 -0.490393
v -0.500000 0.000000 -0.500000
v -0.490393 0.097545 -0.490393
v -0.461940 0.191342 -0.461940
v -0.415735 0.277785 -0.415735
v -0.353553 0.353553 -0.353553
v -0.277785 0.415735 -0.277785
v -0.191342 0.461940 -0.191342
v -0.097545 0.490393 -0.097545
vn -0.0980 -0.9952 -0.0000
vn -0.2903 -0.9569 -0.0000
vn -0.4714 -0.8819 -0.0000
vn -0.6344 -0.7730 -0.0000
vn -0.7730 -0.6344 -0.0000
vn -0.8819 -0.4714 -0.0000
vn -0.9569 -0.2903 -0.0000
vn -0.9952 -0.0980 -0.0000
vn -0.9952 0.0980 -0.0000
vn -0.9569 0.2903 -0.0000
vn -0.8819 0.4714 -0.0000
vn -0.7730 0.6344 -0.0000
vn -0.6344 0.7730 -0.0000
vn -0.4714 0.8819 -0.0000
vn -0.2903 0.9569 -0.0000
vn -0.0980 0.9952 -0.0000
vn -0.0000 -0.9952 0.0980
vn -0.0000 -0.9569 0.2903
vn -0.0000 -0.8819 0.4714
vn -0.0000 -0.7730 0.6344
vn -0.0000 -0.6344 0.7730
vn -0.0000 -0.4714 0.8819
vn -0.0000 -0.2903 0.9569
vn -0.0000 -0.0980 0.9952
vn -0.0000 0.0980 0.9952
vn -0.0000 0.2903 0.9569
vn -0.0000 0.4714 0.8819
vn -0.0000 0.6344 0.7730
vn -0.0000 0.7730 0.6344
vn -0.0000 0.8819 0.4714
vn -0.0000 0.9569 0.2903
vn -0.0000 0.9952 0.0980
vn -0.0000 0.9952 -0.0980
vn -0.0000 0.9569 -0.2903
vn -0.0000 0.8819 -0.4714
vn -0.0000 0.7730 -0.6344
vn -0.0000 0.6344 -0.7730
vn -0.0000 0.4714 -0.8819
vn -0.0000 0.2903 -0.9569
vn -0.0000 0.0980 -0.9952
vn -0.0000 -0.0980 -0.9952
vn -0.0000 -0.2903 -0.9569
vn -0.0000 -0.4714 -0.8819
vn -0.0000 -0.6344 -0.7730
vn -0.0000 -0.7730 -0.6344
vn -0.0000 -0.8819 -0.4714
vn -0.0000 -0.9569 -0.2903
vn -0.0000 -0.9952 -0.0980
vn 1.0000 -0.0000 -0.0000
vn 0.0980 0.9952 -0.0000
vn 0.2903 0.9569 -0.0000
vn 0.4714 0.8819 -0.0000
vn 0.6344 0.7730 -0.0000
vn 0.7730 0.6344 -0.0000
vn 0.8819 0.4714 -0.0000
vn 0.9569 0.2903 -0.0000
vn 0.9952 0.0980 -0.0000
vn 0.9952 -0.0980 -0.0000
vn 0.9569 -0.2903 -0.0000
vn 0.8819 -0.4714 -0.0000
vn 0.7730 -0.6344 -0.0000
vn 0.6344 -0.7730 -0.0000
vn 0.4714 -0.8819 -0.0000
vn 0.2903 -0.9569 -0.0000
vn 0.0980 -0.9952 -0.0000
vn -0.0000 -0.0000 -1.0000
vt 0.500000 0.750000
vt 0.468750 0.762193
vt 0.468750 0.737807
vt 0.437500 0.773918
vt 0.437500 0.726082
vt 0.406250 0.784723
vt 0.406250 0.715277
vt 0.375000 0.794194
vt 0.375000 0.705806
vt 0.343750 0.801967
vt 0.343750 0.698033
vt 0.312500 0.807742
vt 0.312500 0.692258
vt 0.281250 0.811299
vt 0.281250 0.688701
vt 0.250000 0.812500
vt 0.250000 0.687500
vt 0.218750 0.811299
vt 0.218750 0.688701
vt 0.187500 0.807742
vt 0.187500 0.692258
vt 0.156250 0.801967
vt 0.156250 0.698033
vt 0.125000 0.794194
vt 0.125000 0.705806
vt 0.093750 0.784723
vt 0.093750 0.715277
vt 0.062500 0.773918
vt 0.062500 0.726082
vt 0.031250 0.762193
vt 0.031250 0.737807
vt 0.000000 0.750000
vt 0.437500 0.773918
vt 0.375000 0.705806
vt 0.343750 0.698033
vt 0.156250 0.698033
vt 0.062500 0.726082
vt 1.000000 1.000000
vt 0.968750 1.000000
vt 0.968750 0.762193
vt 1.000000 0.750000
vt 0.937500 1.000000
vt 0.937500 0.773918
vt 0.906250 1.000000
vt 0.906250 0.784723
vt 0.875000 1.000000
vt 0.875000 0.794194
vt 0.843750 1.000000
vt 0.843750 0.801967
vt 0.812500 1.000000
vt 0.812500 0.807742
vt 0.781250 1.000000
vt 0.781250 0.811299
vt 0.750000 1.000000
vt 0.750000 0.812500
vt 0.718750 1.000000
vt 0.718750 0.811299
vt 0.687500 1.000000
vt 0.687500 0.807742
vt 0.656250 1.000000
vt 0.656250 0.801967
vt 0.625000 1.000000
vt 0.625000 0.794194
vt 0.593750 1.000000
vt 0.593750 0.784723
vt 0.562500 1.000000
vt 0.562500 0.773918
vt 0.531250 1.000000
vt 0.531250 0.762193
vt 0.500000 1.000000
vt 0.468750 1.000000
vt 0.437500 1.000000
vt 0.406250 1.000000
vt 0.375000 1.000000
vt 0.343750 1.000000
vt 0.312500 1.000000
vt 0.281250 1.000000
vt 0.250000 1.000000
vt 0.218750 1.000000
vt 0.187500 1.000000
vt 0.156250 1.000000
vt 0.125000 1.000000
vt 0.093750 1.000000
vt 0.062500 1.000000
vt 0.419706 0.419706
vt 0.383337 0.449553
vt 0.341844 0.471731
vt 0.296822 0.485388
vt 0.250000 0.490000
vt 0.203178 0.485388
vt 0.158156 0.471731
vt 0.116663 0.449553
vt 0.080294 0.419706
vt 0.050447 0.383337
vt 0.028269 0.341844
vt 0.014612 0.296822
vt 0.010000 0.250000
vt 0.014612 0.203178
vt 0.028269 0.158156
vt 0.050447 0.116663
vt 0.080294 0.080294
vt 0.116663 0.050447
vt 0.158156 0.028269
vt 0.203178 0.014612
vt 0.250000 0.010000
vt 0.296822 0.014612
vt 0.341844 0.028269
vt 0.383337 0.050447
vt 0.419706 0.080294
vt 0.449553 0.116663
vt 0.471731 0.158156
vt 0.485388 0.203178
vt 0.490000 0.250000
vt 0.485388 0.296822
vt 0.471731 0.341844
vt 0.449553 0.383337
vt 0.031250 1.000000
vt 0.000000 1.000000
vt 0.968750 0.500000
vt 1.000000 0.500000
vt 0.968750 0.737807
vt 0.937500 0.500000
vt 0.937500 0.726082
vt 0.906250 0.500000
vt 0.906250 0.715277
vt 0.875000 0.500000
vt 0.875000 0.705806
vt 0.843750 0.698033
vt 0.843750 0.500000
vt 0.812500 0.692258
vt 0.812500 0.500000
vt 0.781250 0.688701
vt 0.781250 0.500000
vt 0.750000 0.687500
vt 0.750000 0.500000
vt 0.718750 0.688701
vt 0.718750 0.500000
vt 0.687500 0.692258
vt 0.687500 0.500000
vt 0.656250 0.698033
vt 0.656250 0.500000
vt 0.625000 0.705806
vt 0.625000 0.500000
vt 0.593750 0.715277
vt 0.593750 0.500000
vt 0.562500 0.726082
vt 0.562500 0.500000
vt 0.531250 0.737807
vt 0.531250 0.500000
vt 0.500000 0.500000
vt 0.468750 0.500000
vt 0.437500 0.500000
vt 0.406250 0.500000
vt 0.375000 0.500000
vt 0.343750 0.500000
vt 0.312500 0.500000
vt 0.281250 0.500000
vt 0.250000 0.500000
vt 0.218750 0.500000
vt 0.187500 0.500000
vt 0.156250 0.500000
vt 0.125000 0.500000
vt 0.093750 0.500000
vt 0.062500 0.500000
vt 0.031250 0.500000
vt 0.000000 0.500000
vt 0.703178 0.485388
vt 0.750000 0.490000
vt 0.796822 0.485388
vt 0.841844 0.471731
vt 0.883337 0.449553
vt 0.919706 0.419706
vt 0.949553 0.383337
vt 0.971731 0.341844
vt 0.985388 0.296822
vt 0.990000 0.250000
vt 0.985388 0.203178
vt 0.971731 0.158156
vt 0.949553 0.116663
vt 0.919706 0.080294
vt 0.883337 0.050447
vt 0.841844 0.028269
vt 0.796822 0.014612
vt 0.750000 0.010000
vt 0.703178 0.014612
vt 0.658156 0.028269
vt 0.616663 0.050447
vt 0.580294 0.080294
vt 0.550447 0.116663
vt 0.528269 0.158156
vt 0.514612 0.203178
vt 0.510000 0.250000
vt 0.514612 0.296822
vt 0.528269 0.341844
vt 0.550447 0.383337
vt 0.580294 0.419706
vt 0.616663 0.449553
vt 0.658156 0.471731
vt 0.468750 0.737807
s 0
f 17/1/1 19/2/1 18/3/1
f 21/4/2 20/5/2 18/3/2 19/2/2
f 23/6/3 22/7/3 20/5/3 21/4/3
f 25/8/4 24/9/4 22/7/4 23/6/4
f 25/8/5 27/10/5 26/11/5 24/9/5
f 27/10/6 29/12/6 28/13/6 26/11/6
f 29/12/7 31/14/7 30/15/7 28/13/7
f 31/14/8 33/16/8 32/17/8 30/15/8
f 33/16/9 35/18/9 34/19/9 32/17/9
f 34/19/10 35/18/10 37/20/10 36/21/10
f 36/21/11 37/20/11 39/22/11 38/23/11
f 38/23/12 39/22/12 41/24/12 40/25/12
f 40/25/13 41/24/13 43/26/13 42/27/13
f 42/27/14 43/26/14 45/28/14 44/29/14
f 44/29/15 45/28/15 47/30/15 46/31/15
f 46/31/16 47/30/16 1/32/16
f 17/1/17 16/2/17 19/3/17
f 19/3/18 16/2/18 15/33/18 21/5/18
f 21/5/19 15/33/19 14/6/19 23/7/19
f 23/7/20 14/6/20 13/8/20 25/34/20
f 25/34/21 13/8/21 12/10/21 27/35/21
f 27/35/22 12/10/22 11/12/22 29/13/22
f 29/13/23 11/12/23 10/14/23 31/15/23
f 31/15/24 10/14/24 9/16/24 33/17/24
f 33/17/25 9/16/25 8/18/25 35/19/25
f 35/19/26 8/18/26 7/20/26 37/21/26
f 37/21/27 7/20/27 6/22/27 39/36/27
f 39/36/28 6/22/28 5/24/28 41/25/28
f 41/25/29 5/24/29 4/26/29 43/27/29
f 43/27/30 4/26/30 3/28/30 45/37/30
f 45/37/31 3/28/31 2/30/31 47/31/31
f 1/32/32 47/31/32 2/30/32
f 48/38/33 49/39/33 81/40/33 80/41/33
f 49/39/34 50/42/34 82/43/34 81/40/34
f 50/42/35 51/44/35 83/45/35 82/43/35
f 51/44/36 52/46/36 84/47/36 83/45/36
f 84/47/37 52/46/37 53/48/37 85/49/37
f 85/49/38 53/48/38 54/50/38 86/51/38
f 86/51/39 54/50/39 55/52/39 87/53/39
f 87/53/40 55/52/40 56/54/40 88/55/40
f 88/55/41 56/54/41 57/56/41 89/57/41
f 89/57/42 57/56/42 58/58/42 90/59/42
f 90/59/43 58/58/43 59/60/43 91/61/43
f 91/61/44 59/60/44 60/62/44 92/63/44
f 92/63/45 60/62/45 61/64/45 93/65/45
f 93/65/46 61/64/46 62/66/46 94/67/46
f 94/67/47 62/66/47 63/68/47 95/69/47
f 95/69/48 63/68/48 64/70/48 96/1/48
f 96/1/17 64/70/17 65/71/17 97/2/17
f 97/2/18 65/71/18 66/72/18 98/4/18
f 98/4/19 66/72/19 67/73/19 99/6/19
f 99/6/20 67/73/20 68/74/20 100/8/20
f 68/74/21 69/75/21 101/10/21 100/8/21
f 69/75/22 70/76/22 102/12/22 101/10/22
f 70/76/23 71/77/23 103/14/23 102/12/23
f 71/77/24 72/78/24 104/16/24 103/14/24
f 72/78/25 73/79/25 105/18/25 104/16/25
f 73/79/26 74/80/26 106/20/26 105/18/26
f 74/80/27 75/81/27 107/22/27 106/20/27
f 75/81/28 76/82/28 108/24/28 107/22/28
f 76/82/29 77/83/29 109/26/29 108/24/29
f 77/83/30 78/84/30 110/28/30 109/26/30
f 52/85/49 51/86/49 50/87/49 49/88/49 48/89/49 79/90/49 78/91/49 77/92/49 76/93/49 75/94/49 74/95/49 73/96/49 72/97/49 71/98/49 70/99/49 69/100/49 68/101/49 67/102/49 66/103/49 65/104/49 64/105/49 63/106/49 62/107/49 61/108/49 60/109/49 59/110/49 58/111/49 57/112/49 56/113/49 55/114/49 54/115/49 53/116/49
f 78/84/31 79/117/31 111/30/31 110/28/31
f 79/117/32 48/118/32 80/32/32 111/30/32
f 113/119/50 112/120/50 144/41/50 145/121/50
f 114/122/51 113/119/51 145/121/51 146/123/51
f 115/124/52 114/122/52 146/123/52 147/125/52
f 116/126/53 115/124/53 147/125/53 148/127/53
f 149/128/54 117/129/54 116/126/54 148/127/54
f 150/130/55 118/131/55 117/129/55 149/128/55
f 151/132/56 119/133/56 118/131/56 150/130/56
f 152/134/57 120/135/57 119/133/57 151/132/57
f 153/136/58 121/137/58 120/135/58 152/134/58
f 154/138/59 122/139/59 121/137/59 153/136/59
f 155/140/60 123/141/60 122/139/60 154/138/60
f 156/142/61 124/143/61 123/141/61 155/140/61
f 157/144/62 125/145/62 124/143/62 156/142/62
f 158/146/63 126/147/63 125/145/63 157/144/63
f 159/148/64 127/149/64 126/147/64 158/146/64
f 160/1/65 128/150/65 127/149/65 159/148/65
f 161/3/1 129/151/1 128/150/1 160/1/1
f 162/5/2 130/152/2 129/151/2 161/3/2
f 163/7/3 131/153/3 130/152/3 162/5/3
f 164/9/4 132/154/4 131/153/4 163/7/4
f 133/155/5 132/154/5 164/9/5 165/11/5
f 134/156/6 133/155/6 165/11/6 166/13/6
f 135/157/7 134/156/7 166/13/7 167/15/7
f 136/158/8 135/157/8 167/15/8 168/17/8
f 137/159/9 136/158/9 168/17/9 169/19/9
f 138/160/10 137/159/10 169/19/10 170/21/10
f 139/161/11 138/160/11 170/21/11 171/23/11
f 140/162/12 139/161/12 171/23/12 172/25/12
f 141/163/13 140/162/13 172/25/13 173/27/13
f 142/164/14 141/163/14 173/27/14 174/29/14
f 143/165/15 142/164/15 174/29/15 175/31/15
f 112/166/16 143/165/16 175/31/16 144/32/16
f 143/167/66 112/168/66 113/169/66 114/170/66 115/171/66 116/172/66 117/173/66 118/174/66 119/175/66 120/176/66 121/177/66 122/178/66 123/179/66 124/180/66 125/181/66 126/182/66 127/183/66 128/184/66 129/185/66 130/186/66 131/187/66 132/188/66 133/189/66 134/190/66 135/191/66 136/192/66 137/193/66 138/194/66 139/195/66 140/196/66 141/197/66 142/198/66
f 160/1/32 159/199/32 161/2/32
f 161/2/31 159/199/31 158/5/31 162/4/31
